<svg xmlns="http://www.w3.org/2000/svg" viewBox="0 0 1039.89 255.31"><defs><style>.cls-1{fill:#007934;}.cls-2{fill:#93d500;}</style></defs><g id="Layer_2" data-name="Layer 2"><g id="Layer_1-2" data-name="Layer 1"><path class="cls-1" d="M399.83,255a19.42,19.42,0,0,1-9.58-2.15,13.47,13.47,0,0,1-5.8-6.44,30.38,30.38,0,0,1,0-21.31,13.33,13.33,0,0,1,5.8-6.38,19.64,19.64,0,0,1,9.58-2.13,29.61,29.61,0,0,1,6,.61,26.16,26.16,0,0,1,5.72,1.91v4.2a44.89,44.89,0,0,0-5.49-2,19.94,19.94,0,0,0-5.83-.87,16.18,16.18,0,0,0-7.75,1.65,10,10,0,0,0-4.51,5,22.06,22.06,0,0,0-1.46,8.65,22.29,22.29,0,0,0,1.46,8.68,10,10,0,0,0,4.51,5.07,16.18,16.18,0,0,0,7.75,1.65,28.44,28.44,0,0,0,4.37-.33,29.17,29.17,0,0,0,4.2-1V239.19h-9v-3.92h13v16.85a30.55,30.55,0,0,1-6.32,2.19A31,31,0,0,1,399.83,255Z"/><path class="cls-1" d="M432.53,255.31a13.75,13.75,0,0,1-6.89-1.65,10.88,10.88,0,0,1-4.48-4.95,19.28,19.28,0,0,1-1.57-8.24q0-7.22,3.28-10.83a11.51,11.51,0,0,1,9-3.61,11.81,11.81,0,0,1,7.19,2,11.17,11.17,0,0,1,3.9,5.43,23.07,23.07,0,0,1,1.12,7.73H421.61l.28-3.69h19.54l-1.56.56q-.18-4.2-2.1-6.27t-5.91-2.08a9.39,9.39,0,0,0-4.57,1,6.14,6.14,0,0,0-2.71,3.5,21.32,21.32,0,0,0-.9,7c0,3.4.8,6,2.38,7.76a8.53,8.53,0,0,0,6.69,2.66,21.45,21.45,0,0,0,3.81-.31,17.28,17.28,0,0,0,5.77-2.1v4.14a19.69,19.69,0,0,1-4.45,1.46A26.23,26.23,0,0,1,432.53,255.31Z"/><path class="cls-1" d="M462,255.31a13.75,13.75,0,0,1-6.89-1.65,10.88,10.88,0,0,1-4.48-4.95,19.29,19.29,0,0,1-1.56-8.24q0-7.22,3.27-10.83a11.53,11.53,0,0,1,9-3.61,11.84,11.84,0,0,1,7.2,2,11.15,11.15,0,0,1,3.89,5.43,23.07,23.07,0,0,1,1.12,7.73H451.12l.28-3.69H471l-1.57.56q-.17-4.2-2.1-6.27t-5.91-2.08a9.32,9.32,0,0,0-4.56,1,6.15,6.15,0,0,0-2.72,3.5,21.32,21.32,0,0,0-.9,7c0,3.4.8,6,2.38,7.76a8.54,8.54,0,0,0,6.7,2.66,21.26,21.26,0,0,0,3.8-.31,16.62,16.62,0,0,0,3.2-.87,16.19,16.19,0,0,0,2.57-1.23v4.14a19.69,19.69,0,0,1-4.45,1.46A26.16,26.16,0,0,1,462,255.31Z"/><path class="cls-1" d="M482.59,254.47V230.23h-4.81v-3.7h4.81V225a15.16,15.16,0,0,1,.7-5,8.07,8.07,0,0,1,1.82-3,7,7,0,0,1,2.36-1.56,8.28,8.28,0,0,1,2.35-.57c.74,0,1.34-.08,1.79-.08a13.25,13.25,0,0,1,1.46.08,7.42,7.42,0,0,1,1.23.26v3.58a6.29,6.29,0,0,0-.9-.17c-.33,0-.71-.05-1.12-.05a16.56,16.56,0,0,0-2,.11,3.92,3.92,0,0,0-1.85.7,4,4,0,0,0-1.34,1.9,11,11,0,0,0-.5,3.78v1.57h7.67v3.7h-7.67v24.24Z"/><path class="cls-1" d="M508.69,254.92a7.11,7.11,0,0,1-5-1.82,6.88,6.88,0,0,1-2-5.4V230.23h-4.87v-3.7h4.87v-7.9h4v7.9H513v3.7h-7.23v16.18a6.79,6.79,0,0,0,.73,3.53q.72,1.17,3,1.17a9.8,9.8,0,0,0,2-.19,7.35,7.35,0,0,0,1.57-.48v3.81a11.41,11.41,0,0,1-2,.48A14.27,14.27,0,0,1,508.69,254.92Z"/><path class="cls-1" d="M545.82,255.31a16.81,16.81,0,0,1-4.26-.58,11,11,0,0,1-7.47-6.78,20.4,20.4,0,0,1-1.26-7.81q0-6.49,3.16-10.28t9.6-3.78a14.71,14.71,0,0,1,2.91.34,30.25,30.25,0,0,1,3.31.84,16,16,0,0,1,2.69,1.06l-1.4,1.4v-15h4v34.94a3.66,3.66,0,0,1-1.09,2.66,7.58,7.58,0,0,1-2.83,1.73,19.47,19.47,0,0,1-3.7,1A24.41,24.41,0,0,1,545.82,255.31Zm0-3.69a17.4,17.4,0,0,0,5.07-.67q2.16-.67,2.16-1.68V231.74a13.58,13.58,0,0,0-3.73-1.48,16,16,0,0,0-3.78-.48,8.42,8.42,0,0,0-4.9,1.31,7.59,7.59,0,0,0-2.74,3.64,15.43,15.43,0,0,0-.87,5.41,22.45,22.45,0,0,0,.67,5.63,8,8,0,0,0,2.58,4.22A8.29,8.29,0,0,0,545.87,251.62Z"/><path class="cls-1" d="M574.6,255.31a18.23,18.23,0,0,1-3.72-.39,11.38,11.38,0,0,1-3.48-1.34,7.31,7.31,0,0,1-2.57-2.61,8,8,0,0,1-1-4.17,10.46,10.46,0,0,1,1.31-5.57,7.39,7.39,0,0,1,3.64-3,14.35,14.35,0,0,1,5.35-.93,25.37,25.37,0,0,1,4,.28,13.94,13.94,0,0,1,3,.82,14.3,14.3,0,0,1,2.38,1.2l.79,3.69a12,12,0,0,0-3.73-1.65,19.5,19.5,0,0,0-5.34-.7,9.32,9.32,0,0,0-5.44,1.35,4.48,4.48,0,0,0-1.9,3.92,4.62,4.62,0,0,0,1.15,3.3,6.22,6.22,0,0,0,2.91,1.74,13.33,13.33,0,0,0,3.61.5,21.79,21.79,0,0,0,5.52-.53,2.33,2.33,0,0,0,1.87-2.44V235.94a5.7,5.7,0,0,0-1.9-4.76,8.54,8.54,0,0,0-5.43-1.51,18.82,18.82,0,0,0-4.73.64,11.62,11.62,0,0,0-4.29,2v-4a13.9,13.9,0,0,1,4.65-1.71,28.7,28.7,0,0,1,5.66-.58,15.18,15.18,0,0,1,3.41.36,10.13,10.13,0,0,1,2.8,1.07,7.09,7.09,0,0,1,2.1,1.79,8,8,0,0,1,1.35,2.52A10.34,10.34,0,0,1,587,235v13.55a5.41,5.41,0,0,1-1.76,4.42,9.42,9.42,0,0,1-4.59,1.91A38.89,38.89,0,0,1,574.6,255.31Z"/><path class="cls-1" d="M603.66,254.92a7.11,7.11,0,0,1-5-1.82,6.91,6.91,0,0,1-2-5.4V230.23h-4.87v-3.7h4.87v-7.9h4v7.9h7.22v3.7H600.7v16.18a6.9,6.9,0,0,0,.72,3.53q.74,1.17,3,1.17a9.72,9.72,0,0,0,2-.19,7.17,7.17,0,0,0,1.57-.48v3.81a11.19,11.19,0,0,1-2,.48A14.18,14.18,0,0,1,603.66,254.92Z"/><path class="cls-1" d="M623.71,255.31a18.23,18.23,0,0,1-3.72-.39,11.38,11.38,0,0,1-3.48-1.34,7.31,7.31,0,0,1-2.57-2.61,8.09,8.09,0,0,1-1-4.17,10.46,10.46,0,0,1,1.31-5.57,7.42,7.42,0,0,1,3.65-3,14.26,14.26,0,0,1,5.34-.93,25.37,25.37,0,0,1,4,.28,14.49,14.49,0,0,1,5.37,2l.79,3.69a12,12,0,0,0-3.73-1.65,19.5,19.5,0,0,0-5.34-.7,9.32,9.32,0,0,0-5.44,1.35,4.5,4.5,0,0,0-1.9,3.92,4.62,4.62,0,0,0,1.15,3.3,6.27,6.27,0,0,0,2.91,1.74,13.33,13.33,0,0,0,3.61.5,21.79,21.79,0,0,0,5.52-.53,2.33,2.33,0,0,0,1.87-2.44V235.94a5.7,5.7,0,0,0-1.9-4.76,8.54,8.54,0,0,0-5.43-1.51,18.82,18.82,0,0,0-4.73.64,11.7,11.7,0,0,0-4.29,2v-4a13.9,13.9,0,0,1,4.65-1.71A28.7,28.7,0,0,1,626,226a15.18,15.18,0,0,1,3.41.36,10.13,10.13,0,0,1,2.8,1.07,7.09,7.09,0,0,1,2.1,1.79,8,8,0,0,1,1.35,2.52,10.34,10.34,0,0,1,.47,3.22v13.55a5.41,5.41,0,0,1-1.76,4.42,9.42,9.42,0,0,1-4.59,1.91A38.8,38.8,0,0,1,623.71,255.31Z"/><path class="cls-1" d="M670.69,255.31a16.8,16.8,0,0,1-4.25-.58,11.14,11.14,0,0,1-4.23-2.19A11.31,11.31,0,0,1,659,248a20.4,20.4,0,0,1-1.26-7.81q0-6.49,3.17-10.28c2.1-2.52,5.31-3.78,9.6-3.78a14.71,14.71,0,0,1,2.91.34,31.45,31.45,0,0,1,3.31.84,15.89,15.89,0,0,1,2.68,1.06l-1.4,1.4v-15h4v34.94a3.62,3.62,0,0,1-1.09,2.66,7.54,7.54,0,0,1-2.82,1.73,19.47,19.47,0,0,1-3.7,1A24.54,24.54,0,0,1,670.69,255.31Zm.06-3.69a17.4,17.4,0,0,0,5.07-.67c1.43-.45,2.15-1,2.15-1.68V231.74a13.52,13.52,0,0,0-3.72-1.48,16.18,16.18,0,0,0-3.78-.48,8.4,8.4,0,0,0-4.9,1.31,7.53,7.53,0,0,0-2.74,3.64,15.43,15.43,0,0,0-.87,5.41,22.45,22.45,0,0,0,.67,5.63,8,8,0,0,0,2.58,4.22A8.25,8.25,0,0,0,670.75,251.62Z"/><path class="cls-1" d="M699.48,255.31a18.25,18.25,0,0,1-3.73-.39,11.23,11.23,0,0,1-3.47-1.34A7.42,7.42,0,0,1,689.7,251a8.09,8.09,0,0,1-1-4.17,10.37,10.37,0,0,1,1.32-5.57,7.39,7.39,0,0,1,3.64-3,14.31,14.31,0,0,1,5.35-.93,25.23,25.23,0,0,1,4,.28,14.45,14.45,0,0,1,5.38,2l.78,3.69a12.07,12.07,0,0,0-3.72-1.65,19.57,19.57,0,0,0-5.35-.7,9.31,9.31,0,0,0-5.43,1.35,4.48,4.48,0,0,0-1.9,3.92,4.66,4.66,0,0,0,1.14,3.3,6.3,6.3,0,0,0,2.92,1.74,13.27,13.27,0,0,0,3.61.5,21.75,21.75,0,0,0,5.51-.53,2.34,2.34,0,0,0,1.88-2.44V235.94a5.73,5.73,0,0,0-1.9-4.76,8.55,8.55,0,0,0-5.44-1.51,18.88,18.88,0,0,0-4.73.64,11.58,11.58,0,0,0-4.28,2v-4a13.82,13.82,0,0,1,4.65-1.71,28.6,28.6,0,0,1,5.65-.58,15.34,15.34,0,0,1,3.42.36,10.25,10.25,0,0,1,2.8,1.07,7.09,7.09,0,0,1,2.1,1.79,8,8,0,0,1,1.34,2.52,10,10,0,0,1,.48,3.22v13.55a5.38,5.38,0,0,1-1.77,4.42,9.34,9.34,0,0,1-4.59,1.91A38.67,38.67,0,0,1,699.48,255.31Z"/><path class="cls-1" d="M729.38,255.31a18.23,18.23,0,0,1-3.72-.39,11.38,11.38,0,0,1-3.48-1.34,7.31,7.31,0,0,1-2.57-2.61,8.09,8.09,0,0,1-1-4.17,10.46,10.46,0,0,1,1.31-5.57,7.42,7.42,0,0,1,3.65-3,14.26,14.26,0,0,1,5.34-.93,25.37,25.37,0,0,1,4,.28,14.49,14.49,0,0,1,5.37,2l.79,3.69a12,12,0,0,0-3.73-1.65,19.5,19.5,0,0,0-5.34-.7,9.32,9.32,0,0,0-5.44,1.35,4.48,4.48,0,0,0-1.9,3.92,4.62,4.62,0,0,0,1.15,3.3,6.22,6.22,0,0,0,2.91,1.74,13.33,13.33,0,0,0,3.61.5,21.79,21.79,0,0,0,5.52-.53,2.33,2.33,0,0,0,1.87-2.44V235.94a5.7,5.7,0,0,0-1.9-4.76,8.54,8.54,0,0,0-5.43-1.51,18.82,18.82,0,0,0-4.73.64,11.7,11.7,0,0,0-4.29,2v-4a13.9,13.9,0,0,1,4.65-1.71,28.7,28.7,0,0,1,5.66-.58,15.18,15.18,0,0,1,3.41.36,10.13,10.13,0,0,1,2.8,1.07,7.09,7.09,0,0,1,2.1,1.79,8,8,0,0,1,1.35,2.52,10.34,10.34,0,0,1,.47,3.22v13.55a5.41,5.41,0,0,1-1.76,4.42,9.42,9.42,0,0,1-4.59,1.91A38.89,38.89,0,0,1,729.38,255.31Z"/><path class="cls-1" d="M761.24,255.31a16.8,16.8,0,0,1-4.25-.58,11,11,0,0,1-7.48-6.78,20.4,20.4,0,0,1-1.26-7.81q0-6.49,3.17-10.28c2.1-2.52,5.31-3.78,9.6-3.78a14.71,14.71,0,0,1,2.91.34,31.45,31.45,0,0,1,3.31.84,15.89,15.89,0,0,1,2.68,1.06l-1.4,1.4v-15h4v34.94a3.63,3.63,0,0,1-1.1,2.66,7.54,7.54,0,0,1-2.82,1.73,19.47,19.47,0,0,1-3.7,1A24.54,24.54,0,0,1,761.24,255.31Zm.06-3.69a17.4,17.4,0,0,0,5.07-.67c1.43-.45,2.15-1,2.15-1.68V231.74a13.4,13.4,0,0,0-3.72-1.48,16.18,16.18,0,0,0-3.78-.48,8.4,8.4,0,0,0-4.9,1.31,7.53,7.53,0,0,0-2.74,3.64,15.43,15.43,0,0,0-.87,5.41,22.45,22.45,0,0,0,.67,5.63,8,8,0,0,0,2.58,4.22A8.25,8.25,0,0,0,761.3,251.62Z"/><path class="cls-1" d="M784.43,254.47h-4V215.89h4Zm1.12-17.41,17.3,17.41h-5.38L782.8,239.63Zm-2,.67,12.26-11.2h5.05L784.43,241Z"/><path class="cls-1" d="M807.89,254.47v-25.7c.45-.19,1.32-.5,2.6-1a36.5,36.5,0,0,1,4.65-1.23,27.36,27.36,0,0,1,5.63-.56,3.47,3.47,0,0,1,.9.11l.89.22V230a25.1,25.1,0,0,0-2.83-.17,25.58,25.58,0,0,0-2.66.14c-.86.09-1.71.21-2.57.36l-2.58.45v23.74Z"/><path class="cls-1" d="M837.51,255.31a18.23,18.23,0,0,1-3.72-.39,11.23,11.23,0,0,1-3.47-1.34,7.33,7.33,0,0,1-2.58-2.61,8.09,8.09,0,0,1-1-4.17,10.37,10.37,0,0,1,1.32-5.57,7.39,7.39,0,0,1,3.64-3,14.31,14.31,0,0,1,5.35-.93,25.23,25.23,0,0,1,4,.28,14.45,14.45,0,0,1,5.38,2l.78,3.69a12.07,12.07,0,0,0-3.72-1.65,19.62,19.62,0,0,0-5.35-.7,9.31,9.31,0,0,0-5.43,1.35,4.49,4.49,0,0,0-1.91,3.92,4.67,4.67,0,0,0,1.15,3.3,6.32,6.32,0,0,0,2.91,1.74,13.35,13.35,0,0,0,3.62.5,21.75,21.75,0,0,0,5.51-.53,2.34,2.34,0,0,0,1.88-2.44V235.94a5.71,5.71,0,0,0-1.91-4.76,8.54,8.54,0,0,0-5.43-1.51,18.88,18.88,0,0,0-4.73.64,11.58,11.58,0,0,0-4.28,2v-4a13.75,13.75,0,0,1,4.64-1.71,28.7,28.7,0,0,1,5.66-.58,15.34,15.34,0,0,1,3.42.36,10.25,10.25,0,0,1,2.8,1.07,7.09,7.09,0,0,1,2.1,1.79,8,8,0,0,1,1.34,2.52A10,10,0,0,1,850,235v13.55a5.38,5.38,0,0,1-1.77,4.42,9.38,9.38,0,0,1-4.59,1.91A38.71,38.71,0,0,1,837.51,255.31Z"/><path class="cls-1" d="M869.49,254.92a18.57,18.57,0,0,1-4.56-.58,11.4,11.4,0,0,1-4.26-2.13,10.7,10.7,0,0,1-3.11-4.4,19.55,19.55,0,0,1-1.17-7.34,19.29,19.29,0,0,1,1.17-7.3,11,11,0,0,1,3.11-4.4,11.17,11.17,0,0,1,4.26-2.16,18.57,18.57,0,0,1,4.56-.58,23.12,23.12,0,0,1,4.23.39,21.71,21.71,0,0,1,4.06,1.17v3.87a19.54,19.54,0,0,0-3.81-1.18,20.63,20.63,0,0,0-4-.39c-3.33,0-5.74.84-7.25,2.52s-2.27,4.37-2.27,8.06.75,6.44,2.27,8.1,3.92,2.49,7.25,2.49a20.63,20.63,0,0,0,4-.39,19.54,19.54,0,0,0,3.81-1.18v3.92a24.11,24.11,0,0,1-4.06,1.12A23.12,23.12,0,0,1,869.49,254.92Z"/><path class="cls-1" d="M884.22,254.47V214.15h4v15.52l-.45-1.07a22.31,22.31,0,0,1,4.48-1.87,15.43,15.43,0,0,1,4.43-.7,12.28,12.28,0,0,1,5.85,1.28,8.52,8.52,0,0,1,3.64,3.9,15.35,15.35,0,0,1,1.26,6.69v16.57h-4V237.9a9.12,9.12,0,0,0-1.8-6.05,6.61,6.61,0,0,0-5.37-2.13,14.6,14.6,0,0,0-4,.56,20.56,20.56,0,0,0-4.06,1.68v22.51Z"/><path class="cls-1" d="M924.09,254.92a7.11,7.11,0,0,1-5-1.82,6.88,6.88,0,0,1-2-5.4V230.23h-4.87v-3.7h4.87v-7.9h4v7.9h7.23v3.7h-7.23v16.18a6.79,6.79,0,0,0,.73,3.53q.72,1.17,3,1.17a9.8,9.8,0,0,0,2-.19,7.53,7.53,0,0,0,1.57-.48v3.81a11.41,11.41,0,0,1-2,.48A14.27,14.27,0,0,1,924.09,254.92Z"/><path class="cls-1" d="M928.67,47.43V0h-17V47.43h-.09v17h.09v77.43H819.23q-15,0-15-15.2V79.45q0-15,15-15h37.9q15.21,0,15.2,13v4.46q0,12.77-15.2,12.77H812.72v17h44.41q32.22,0,32.23-29.79V77.42q0-30-32.23-30h-37.9q-31.82,0-31.82,32v47.22a43.49,43.49,0,0,0,2.42,15.21H759.45V79.45q0-32-32.23-32H582.31q-32.22,0-32.22,32,0,32.22,32.22,32.22h22.3q15.2,0,15.2,15,0,15.2-15.2,15.2H464.41q-15,0-15-15.2V79.45q0-15,15-15h37.9q15.2,0,15.2,13v4.46q0,12.77-15.2,12.77H457.9v17h44.41q32.22,0,32.22-29.79V77.42q0-30-32.22-30H394.94V0h-17V141.87H342.85V47.43h-17v94.44h-53.1q-15,0-15-15.2V47.43H136.47v17h44.25q15.19,0,15.2,15v47.22q0,15.2-15.2,15.2h-37.9q-15,0-15-15.2V0H111V126.67q0,32.22,31.82,32.22h37.9q32.22,0,32.22-32.22V79.45a42.53,42.53,0,0,0-2.41-15h30.38v62.23q0,32.22,31.82,32.22h32.74v0h20.36V184.1q0,15.21-15.21,15.2H269.08v16.82h41.54q32.24,0,32.23-32V158.91h52.09V64.45h40a43.26,43.26,0,0,0-2.37,15v47.22q0,32.22,31.82,32.22h140.2q32.22,0,32.22-32.22,0-32-32.22-32h-22.3q-15.19,0-15.2-15.2,0-15,15.2-15H657.5v94.45h16.82V64.45h52.9q15.19,0,15.2,15v79.44H928.67V64.45h29.22v-17Z"/><rect class="cls-2" x="59.55" y="47.42" width="17.03" height="17.03"/><rect class="cls-2" x="85.1" y="47.42" width="17.03" height="17.03"/><rect class="cls-1" x="967.85" y="47.41" width="72.03" height="17.11"/><rect class="cls-1" y="47.41" width="50.87" height="17.11"/></g></g></svg>