<svg width="135" height="44" viewBox="0 0 135 44" fill="none" xmlns="http://www.w3.org/2000/svg">
  <g filter="url(#filter0_b_1767_13107)">
    <path fill-rule="evenodd" clip-rule="evenodd" d="M6.46323 26.6845L6.46323 25.7611C6.37655 25.3335 6.64842 24.8734 7.27886 24.6495L16.2296 21.4702C17.0057 21.1946 17.9193 21.1946 18.6954 21.4702L27.6461 24.6495C28.2326 24.8577 28.5088 25.2704 28.4747 25.6711L28.4747 26.7744C28.5088 27.1752 28.2326 27.5878 27.6461 27.7961L18.6954 30.9753C17.9193 31.251 17.0057 31.251 16.2296 30.9753L7.27887 27.7961C6.64843 27.5722 6.37655 27.1121 6.46323 26.6845Z" fill="#54ABFF"/>
    <path fill-rule="evenodd" clip-rule="evenodd" d="M6.46323 26.6845L6.46323 25.7611C6.37655 25.3335 6.64842 24.8734 7.27886 24.6495L16.2296 21.4702C17.0057 21.1946 17.9193 21.1946 18.6954 21.4702L27.6461 24.6495C28.2326 24.8577 28.5088 25.2704 28.4747 25.6711L28.4747 26.7744C28.5088 27.1752 28.2326 27.5878 27.6461 27.7961L18.6954 30.9753C17.9193 31.251 17.0057 31.251 16.2296 30.9753L7.27887 27.7961C6.64843 27.5722 6.37655 27.1121 6.46323 26.6845Z" fill="url(#paint0_radial_1767_13107)" fill-opacity="0.8"/>
    <path d="M6.51044 26.6941L6.5114 26.6943L6.5114 26.6845L6.5114 25.7611H6.51238L6.51044 25.7515C6.42997 25.3545 6.67953 24.9135 7.29499 24.6948L16.2457 21.5156C17.0114 21.2437 17.9136 21.2437 18.6793 21.5156L27.63 24.6948C28.2026 24.8982 28.4584 25.2945 28.4267 25.6671L28.4265 25.667V25.6711L28.4265 26.7744H28.4264L28.4267 26.7785C28.4584 27.151 28.2026 27.5474 27.63 27.7507L18.6793 30.9299C17.9136 31.2019 17.0114 31.2019 16.2457 30.9299L7.29499 27.7507C6.67953 27.5321 6.42997 27.091 6.51044 26.6941Z" stroke="#67B1F9" stroke-opacity="0.8" stroke-width="0.0963474"/>
  </g>
  <g style="mix-blend-mode:color-burn">
    <path fill-rule="evenodd" clip-rule="evenodd" d="M6.46323 23.7438L6.46323 22.8204C6.37655 22.3928 6.64842 21.9327 7.27886 21.7088L16.2296 18.5296C17.0057 18.2539 17.9193 18.2539 18.6954 18.5296L27.6461 21.7088C28.2326 21.9171 28.5088 22.3297 28.4747 22.7305L28.4747 23.8338C28.5088 24.2345 28.2326 24.6471 27.6461 24.8554L18.6954 28.0347C17.9193 28.3103 17.0057 28.3103 16.2296 28.0347L7.27887 24.8554C6.64843 24.6315 6.37655 24.1714 6.46323 23.7438Z" fill="url(#paint1_radial_1767_13107)"/>
    <path fill-rule="evenodd" clip-rule="evenodd" d="M6.46323 23.7438L6.46323 22.8204C6.37655 22.3928 6.64842 21.9327 7.27886 21.7088L16.2296 18.5296C17.0057 18.2539 17.9193 18.2539 18.6954 18.5296L27.6461 21.7088C28.2326 21.9171 28.5088 22.3297 28.4747 22.7305L28.4747 23.8338C28.5088 24.2345 28.2326 24.6471 27.6461 24.8554L18.6954 28.0347C17.9193 28.3103 17.0057 28.3103 16.2296 28.0347L7.27887 24.8554C6.64843 24.6315 6.37655 24.1714 6.46323 23.7438Z" fill="url(#paint2_radial_1767_13107)"/>
  </g>
  <g filter="url(#filter1_b_1767_13107)">
    <path fill-rule="evenodd" clip-rule="evenodd" d="M6.46323 22.6521L6.46323 21.7287C6.37655 21.3011 6.64842 20.841 7.27886 20.617L16.2296 17.4378C17.0057 17.1622 17.9193 17.1622 18.6954 17.4378L27.6461 20.617C28.2326 20.8253 28.5088 21.238 28.4747 21.6387L28.4747 22.742C28.5088 23.1428 28.2326 23.5554 27.6461 23.7637L18.6954 26.9429C17.9193 27.2186 17.0057 27.2186 16.2296 26.9429L7.27887 23.7637C6.64843 23.5398 6.37655 23.0797 6.46323 22.6521Z" fill="#693DFC" fill-opacity="0.8"/>
    <path fill-rule="evenodd" clip-rule="evenodd" d="M6.46323 22.6521L6.46323 21.7287C6.37655 21.3011 6.64842 20.841 7.27886 20.617L16.2296 17.4378C17.0057 17.1622 17.9193 17.1622 18.6954 17.4378L27.6461 20.617C28.2326 20.8253 28.5088 21.238 28.4747 21.6387L28.4747 22.742C28.5088 23.1428 28.2326 23.5554 27.6461 23.7637L18.6954 26.9429C17.9193 27.2186 17.0057 27.2186 16.2296 26.9429L7.27887 23.7637C6.64843 23.5398 6.37655 23.0797 6.46323 22.6521Z" fill="url(#paint3_radial_1767_13107)" fill-opacity="0.8"/>
    <path d="M6.51044 22.6616L6.5114 22.6618L6.5114 22.6521L6.5114 21.7287H6.51238L6.51044 21.7191C6.42997 21.3221 6.67953 20.881 7.29499 20.6624L16.2457 17.4832C17.0114 17.2113 17.9136 17.2113 18.6793 17.4832L27.63 20.6624C28.2026 20.8658 28.4584 21.2621 28.4267 21.6346L28.4265 21.6346V21.6387L28.4265 22.742H28.4264L28.4267 22.7461C28.4584 23.1186 28.2026 23.5149 27.63 23.7183L18.6793 26.8975C17.9136 27.1695 17.0114 27.1695 16.2457 26.8975L7.29499 23.7183C6.67953 23.4997 6.42997 23.0586 6.51044 22.6616Z" stroke="#4D1DEA" stroke-opacity="0.8" stroke-width="0.0963474"/>
  </g>
  <g style="mix-blend-mode:color-burn">
    <path fill-rule="evenodd" clip-rule="evenodd" d="M6.46323 19.3766L6.46323 18.4532C6.37655 18.0255 6.64842 17.5655 7.27886 17.3415L16.2296 14.1623C17.0057 13.8866 17.9193 13.8866 18.6954 14.1623L27.6461 17.3415C28.2326 17.5498 28.5088 17.9625 28.4747 18.3632L28.4747 19.4665C28.5088 19.8673 28.2326 20.2799 27.6461 20.4882L18.6954 23.6674C17.9193 23.9431 17.0057 23.9431 16.2296 23.6674L7.27887 20.4882C6.64843 20.2643 6.37655 19.8042 6.46323 19.3766Z" fill="url(#paint4_radial_1767_13107)"/>
    <path fill-rule="evenodd" clip-rule="evenodd" d="M6.46323 19.3766L6.46323 18.4532C6.37655 18.0255 6.64842 17.5655 7.27886 17.3415L16.2296 14.1623C17.0057 13.8866 17.9193 13.8866 18.6954 14.1623L27.6461 17.3415C28.2326 17.5498 28.5088 17.9625 28.4747 18.3632L28.4747 19.4665C28.5088 19.8673 28.2326 20.2799 27.6461 20.4882L18.6954 23.6674C17.9193 23.9431 17.0057 23.9431 16.2296 23.6674L7.27887 20.4882C6.64843 20.2643 6.37655 19.8042 6.46323 19.3766Z" fill="url(#paint5_radial_1767_13107)"/>
  </g>
  <g filter="url(#filter2_b_1767_13107)">
    <path fill-rule="evenodd" clip-rule="evenodd" d="M6.46323 18.2848L6.46323 17.3614C6.37655 16.9337 6.64842 16.4737 7.27886 16.2497L16.2296 13.0705C17.0057 12.7948 17.9193 12.7949 18.6954 13.0705L27.6461 16.2497C28.2326 16.458 28.5088 16.8707 28.4747 17.2714L28.4747 18.3747C28.5088 18.7755 28.2326 19.1881 27.6461 19.3964L18.6954 22.5756C17.9193 22.8513 17.0057 22.8513 16.2296 22.5756L7.27887 19.3964C6.64843 19.1725 6.37655 18.7124 6.46323 18.2848Z" fill="#FFB155" fill-opacity="0.8"/>
    <path fill-rule="evenodd" clip-rule="evenodd" d="M6.46323 18.2848L6.46323 17.3614C6.37655 16.9337 6.64842 16.4737 7.27886 16.2497L16.2296 13.0705C17.0057 12.7948 17.9193 12.7949 18.6954 13.0705L27.6461 16.2497C28.2326 16.458 28.5088 16.8707 28.4747 17.2714L28.4747 18.3747C28.5088 18.7755 28.2326 19.1881 27.6461 19.3964L18.6954 22.5756C17.9193 22.8513 17.0057 22.8513 16.2296 22.5756L7.27887 19.3964C6.64843 19.1725 6.37655 18.7124 6.46323 18.2848Z" fill="url(#paint6_radial_1767_13107)" fill-opacity="0.8"/>
    <path d="M6.51044 18.2943L6.5114 18.2945L6.5114 18.2848L6.5114 17.3614H6.51238L6.51044 17.3518C6.42997 16.9548 6.67953 16.5137 7.29499 16.2951L16.2457 13.1159C17.0114 12.8439 17.9136 12.8439 18.6793 13.1159L27.63 16.2951C28.2026 16.4985 28.4584 16.8948 28.4267 17.2673L28.4265 17.2673V17.2714L28.4265 18.3747H28.4264L28.4267 18.3788C28.4584 18.7513 28.2026 19.1476 27.63 19.351L18.6793 22.5302C17.9136 22.8022 17.0114 22.8022 16.2457 22.5302L7.29499 19.351C6.67953 19.1324 6.42997 18.6913 6.51044 18.2943Z" stroke="#FFE353" stroke-opacity="0.8" stroke-width="0.0963474"/>
  </g>
  <path fill-rule="evenodd" clip-rule="evenodd" d="M31.7676 28.9418H33.0469C34.0483 28.9418 34.86 29.7536 34.86 30.7549C34.86 31.7562 34.0483 32.5679 33.0469 32.5679H27.9628C26.1154 32.5679 24.2849 32.9193 22.5688 33.6033C20.7814 34.3157 19.5015 35.917 19.2005 37.8174L18.4825 42.351C18.4005 42.8687 17.9542 43.25 17.43 43.25C16.9058 43.25 16.4594 42.8687 16.3775 42.351L15.6595 37.8174C15.3585 35.917 14.0786 34.3157 12.2912 33.6033C10.5751 32.9193 8.74459 32.5679 6.8972 32.5679H1.81304C0.811718 32.5679 -1.52588e-05 31.7562 -1.52588e-05 30.7549C-1.52588e-05 29.7536 0.811718 28.9418 1.81304 28.9418H3.09238C3.87704 28.9418 4.65591 29.0762 5.39521 29.3392L17.43 33.6195C17.43 33.6196 17.43 33.6196 17.43 33.6196C17.43 33.6196 17.43 33.6196 17.43 33.6195L29.4648 29.3392C30.2041 29.0762 30.9829 28.9418 31.7676 28.9418Z" fill="url(#paint7_linear_1767_13107)"/>
  <path fill-rule="evenodd" clip-rule="evenodd" d="M31.7676 15.0582H33.0469C34.0483 15.0582 34.86 14.2464 34.86 13.2451C34.86 12.2438 34.0483 11.4321 33.0469 11.4321H27.9628C26.1154 11.4321 24.2849 11.0807 22.5688 10.3967C20.7814 9.68434 19.5015 8.08301 19.2005 6.18258L18.4825 1.64899C18.4005 1.13125 17.9542 0.750029 17.43 0.750029C16.9058 0.750029 16.4594 1.13125 16.3775 1.64899L15.6595 6.18256C15.3585 8.083 14.0786 9.68433 12.2912 10.3967C10.5751 11.0807 8.74459 11.4321 6.8972 11.4321H1.81304C0.811718 11.4321 -1.52588e-05 12.2438 -1.52588e-05 13.2451C-1.52588e-05 14.2464 0.811718 15.0582 1.81304 15.0582H3.09238C3.87704 15.0582 4.65591 14.9238 5.39521 14.6608L17.43 10.3805C17.43 10.3804 17.43 10.3804 17.43 10.3804C17.43 10.3804 17.43 10.3804 17.43 10.3805L29.4648 14.6608C30.2041 14.9238 30.9829 15.0582 31.7676 15.0582Z" fill="url(#paint8_linear_1767_13107)"/>
  <path d="M132.581 32.7315V30.294H135V32.7315H132.581Z" fill="#7D58F7"/>
  <path d="M45.335 32.7315C44.2413 32.7315 43.3835 32.4397 42.7616 31.8563C42.1612 31.2512 41.861 30.4408 41.861 29.4251V19.4411H39.2876V16.4265H41.861V11.6938H45.0455V16.4265H48.7447V19.4411H45.0455V28.7768C45.0455 29.4467 45.3779 29.7817 46.0427 29.7817H48.7447V32.7315H45.335Z" fill="#2E3038"/>
  <path d="M58.9499 33.0556C57.556 33.0556 56.28 32.6991 55.122 31.9859C53.9855 31.2728 53.0848 30.2679 52.42 28.9713C51.7552 27.6747 51.4228 26.2052 51.4228 24.5628C51.4228 22.9204 51.7552 21.4617 52.42 20.1867C53.0848 18.8901 53.9855 17.8852 55.122 17.1721C56.28 16.4589 57.556 16.1023 58.9499 16.1023C61.0086 16.1023 62.6705 16.9019 63.9358 18.5011H64.0966L64.4183 16.4265H67.1525V32.7315H64.4183L64.0966 30.6569H63.9358C62.6705 32.2561 61.0086 33.0556 58.9499 33.0556ZM59.3037 30.0734C60.1401 30.0734 60.9121 29.8465 61.6198 29.3927C62.3489 28.9389 62.9172 28.2906 63.3246 27.4478C63.7535 26.605 63.9679 25.6433 63.9679 24.5628C63.9679 23.4823 63.7535 22.5314 63.3246 21.7102C62.9172 20.8674 62.3489 20.2191 61.6198 19.7653C60.9121 19.3115 60.1401 19.0846 59.3037 19.0846C58.446 19.0846 57.6632 19.3115 56.9555 19.7653C56.2479 20.2191 55.6796 20.8674 55.2507 21.7102C54.8433 22.5314 54.6395 23.4823 54.6395 24.5628C54.6395 25.6649 54.8433 26.6374 55.2507 27.4802C55.6796 28.3014 56.2479 28.9389 56.9555 29.3927C57.6632 29.8465 58.446 30.0734 59.3037 30.0734Z" fill="#2E3038"/>
  <path d="M74.6393 32.7315H71.4548V16.4265H74.6393V32.7315ZM74.8002 13.347H71.3261V10.1055H74.8002V13.347Z" fill="#2E3038"/>
  <path d="M82.3079 32.7315H79.1234V10.0406H82.3079V23.8496L88.9664 16.4265H92.8265L85.5567 24.4007L93.1481 32.7315H89.2881L82.3079 24.9842V32.7315Z" fill="#2E3038"/>
  <path d="M101.542 33.0556C100.298 33.0556 99.1833 32.7747 98.1968 32.2128C97.2318 31.6294 96.4706 30.819 95.913 29.7817C95.3769 28.7444 95.1088 27.5558 95.1088 26.216V16.4265H98.2933V25.9566C98.2933 27.1236 98.6686 28.0961 99.4192 28.874C100.17 29.652 101.103 30.041 102.218 30.041C102.968 30.041 103.655 29.8573 104.276 29.4899C104.92 29.1226 105.424 28.6255 105.788 27.9988C106.153 27.3721 106.335 26.6914 106.335 25.9566V16.4265H109.52V32.7315H106.785L106.464 31.0459H106.303C105.853 31.5861 105.209 32.0616 104.373 32.4722C103.537 32.8611 102.593 33.0556 101.542 33.0556Z" fill="#2E3038"/>
  <path d="M113.831 32.7315V16.4265H116.565L116.887 18.1121H117.048C117.455 17.5935 118.077 17.1288 118.913 16.7182C119.75 16.3076 120.715 16.1023 121.808 16.1023C123.052 16.1023 124.157 16.3941 125.122 16.9776C126.108 17.5394 126.869 18.339 127.405 19.3763C127.963 20.4136 128.242 21.6022 128.242 22.942V32.7315H125.057V23.2013C125.057 22.0344 124.682 21.0619 123.931 20.2839C123.181 19.506 122.248 19.117 121.133 19.117C120.382 19.117 119.685 19.3007 119.042 19.668C118.42 20.0354 117.927 20.5325 117.562 21.1592C117.198 21.7859 117.016 22.4666 117.016 23.2013V32.7315H113.831Z" fill="#2E3038"/>
  <defs>
    <filter id="filter0_b_1767_13107" x="5.48404" y="20.3" width="23.9569" height="11.8455" filterUnits="userSpaceOnUse" color-interpolation-filters="sRGB">
      <feFlood flood-opacity="0" result="BackgroundImageFix"/>
      <feGaussianBlur in="BackgroundImageFix" stdDeviation="0.481737"/>
      <feComposite in2="SourceAlpha" operator="in" result="effect1_backgroundBlur_1767_13107"/>
      <feBlend mode="normal" in="SourceGraphic" in2="effect1_backgroundBlur_1767_13107" result="shape"/>
    </filter>
    <filter id="filter1_b_1767_13107" x="2.94907" y="13.7326" width="29.0268" height="16.9155" filterUnits="userSpaceOnUse" color-interpolation-filters="sRGB">
      <feFlood flood-opacity="0" result="BackgroundImageFix"/>
      <feGaussianBlur in="BackgroundImageFix" stdDeviation="1.74922"/>
      <feComposite in2="SourceAlpha" operator="in" result="effect1_backgroundBlur_1767_13107"/>
      <feBlend mode="normal" in="SourceGraphic" in2="effect1_backgroundBlur_1767_13107" result="shape"/>
    </filter>
    <filter id="filter2_b_1767_13107" x="3.44751" y="9.86377" width="28.03" height="15.9186" filterUnits="userSpaceOnUse" color-interpolation-filters="sRGB">
      <feFlood flood-opacity="0" result="BackgroundImageFix"/>
      <feGaussianBlur in="BackgroundImageFix" stdDeviation="1.5"/>
      <feComposite in2="SourceAlpha" operator="in" result="effect1_backgroundBlur_1767_13107"/>
      <feBlend mode="normal" in="SourceGraphic" in2="effect1_backgroundBlur_1767_13107" result="shape"/>
    </filter>
    <radialGradient id="paint0_radial_1767_13107" cx="0" cy="0" r="1" gradientUnits="userSpaceOnUse" gradientTransform="translate(25.4078 25.7229) rotate(175.684) scale(13.7023 3.53275)">
      <stop stop-color="#8BF8FF"/>
      <stop offset="1" stop-color="#AAD5FF" stop-opacity="0"/>
    </radialGradient>
    <radialGradient id="paint1_radial_1767_13107" cx="0" cy="0" r="1" gradientUnits="userSpaceOnUse" gradientTransform="translate(17.3421 20.5064) rotate(88.8157) scale(8.73637 7.96709)">
      <stop stop-color="#333A5C"/>
      <stop offset="1" stop-color="#333A5C" stop-opacity="0"/>
    </radialGradient>
    <radialGradient id="paint2_radial_1767_13107" cx="0" cy="0" r="1" gradientUnits="userSpaceOnUse" gradientTransform="translate(17.4625 23.2821) rotate(88.715) scale(2.68407 10.3682)">
      <stop stop-color="#333A5C"/>
      <stop offset="1" stop-color="#333A5C" stop-opacity="0"/>
    </radialGradient>
    <radialGradient id="paint3_radial_1767_13107" cx="0" cy="0" r="1" gradientUnits="userSpaceOnUse" gradientTransform="translate(25.1068 21.477) rotate(179.339) scale(15.7712 7.96694)">
      <stop stop-color="#AE96FF"/>
      <stop offset="1" stop-color="#AE96FF" stop-opacity="0"/>
    </radialGradient>
    <radialGradient id="paint4_radial_1767_13107" cx="0" cy="0" r="1" gradientUnits="userSpaceOnUse" gradientTransform="translate(16.981 18.1408) rotate(91.0528) scale(6.55198 7.72406)">
      <stop stop-color="#333A5C"/>
      <stop offset="1" stop-color="#333A5C" stop-opacity="0"/>
    </radialGradient>
    <radialGradient id="paint5_radial_1767_13107" cx="0" cy="0" r="1" gradientUnits="userSpaceOnUse" gradientTransform="translate(17.4625 18.9149) rotate(88.715) scale(2.68407 10.3682)">
      <stop stop-color="#333A5C"/>
      <stop offset="1" stop-color="#333A5C" stop-opacity="0"/>
    </radialGradient>
    <radialGradient id="paint6_radial_1767_13107" cx="0" cy="0" r="1" gradientUnits="userSpaceOnUse" gradientTransform="translate(26.1763 15.4816) rotate(168.745) scale(15.1602 6.36349)">
      <stop offset="0.0001" stop-color="#FFF1A6"/>
      <stop offset="1" stop-color="#FFEF99" stop-opacity="0"/>
    </radialGradient>
    <linearGradient id="paint7_linear_1767_13107" x1="18.195" y1="32.2455" x2="40.2927" y2="38.2161" gradientUnits="userSpaceOnUse">
      <stop stop-color="#7D58F7"/>
      <stop offset="1" stop-color="#B099FA"/>
    </linearGradient>
    <linearGradient id="paint8_linear_1767_13107" x1="18.195" y1="11.7545" x2="39.5219" y2="6.71565" gradientUnits="userSpaceOnUse">
      <stop stop-color="#7D58F7"/>
      <stop offset="1" stop-color="#B099FA"/>
    </linearGradient>
  </defs>
</svg>
