<svg xmlns="http://www.w3.org/2000/svg" width="138" height="32" viewBox="0 0 138 32" fill="none"><path fill-rule="evenodd" clip-rule="evenodd" d="M16.2445 0C7.28962 0 0 7.17988 0 16C0 24.8201 7.28962 32 16.2445 32C25.1995 32 32.4891 24.8201 32.4891 16C32.4891 7.17988 25.1995 0 16.2445 0ZM16.2445 29.9884C8.42077 29.9884 2.04235 23.706 2.04235 16C2.04235 8.294 8.40506 2.01161 16.2445 2.01161C24.084 2.01161 30.4467 8.27853 30.4467 16C30.4467 23.7215 24.0683 29.9884 16.2445 29.9884ZM19.2767 8.24758L17.6899 9.81045L23.2514 15.2727C23.6441 15.6596 23.6441 16.3095 23.2514 16.6963C23.0471 16.8975 22.7958 16.9903 22.5287 16.9903C22.2616 16.9903 22.0103 16.8975 21.806 16.6963L16.2445 11.2186L13.1025 14.3133C12.8982 14.5145 12.6469 14.6074 12.3798 14.6074C12.1127 14.6074 11.8614 14.5145 11.6571 14.3133C11.2644 13.9265 11.2644 13.2766 11.6571 12.8898L15.5219 9.09865L17.8313 6.82399C18.2241 6.43714 18.8839 6.43714 19.2767 6.82399C19.6694 7.21083 19.6694 7.86074 19.2767 8.24758ZM16.2445 20.766L19.3866 17.6712C19.7794 17.2689 20.4235 17.2689 20.8162 17.6712C21.209 18.058 21.209 18.7079 20.8162 19.0948L14.6421 25.176C14.4378 25.3772 14.1865 25.47 13.9194 25.47C13.6523 25.47 13.4009 25.3772 13.1967 25.176C12.8039 24.7892 12.8039 24.1393 13.1967 23.7524L14.7992 22.1896L9.23769 16.7118C8.84493 16.3249 8.84493 15.675 9.23769 15.2882C9.63045 14.9014 10.2903 14.9014 10.683 15.2882L16.2445 20.766ZM57.39 24.7582C57.39 24.6654 57.4057 24.588 57.4214 24.5261L62.4802 8.27853C62.7001 7.67505 63.2971 7.38104 64.2869 7.38104C65.2923 7.38104 65.905 7.65957 66.125 8.21663L71.168 24.4642C71.1994 24.5725 71.2151 24.6499 71.2151 24.6963C71.2151 25.0058 71.0109 25.2843 70.6182 25.5164C70.2254 25.7485 69.8012 25.8569 69.3613 25.8569C68.8272 25.8569 68.4973 25.6712 68.3716 25.3153L67.319 21.7253H61.0662L60.0294 25.2998C59.9037 25.6712 59.6052 25.8569 59.0867 25.8569C58.6783 25.8569 58.3012 25.7485 57.9399 25.5319C57.5785 25.3153 57.39 25.0677 57.39 24.7582ZM61.6632 19.6209H66.722L64.1769 11.0174L61.6632 19.6209ZM40.5014 8.7584C40.5014 8.43345 40.5799 8.15492 40.737 7.90734C40.8941 7.65976 41.1141 7.53597 41.3968 7.53597H51.9542C52.237 7.53597 52.457 7.65976 52.6141 7.89187C52.7712 8.12397 52.8497 8.4025 52.8497 8.72746C52.8497 9.08336 52.7712 9.37736 52.6141 9.62494C52.457 9.87252 52.237 9.99632 51.9699 9.99632H48.0581V24.9905C48.0581 25.2536 47.9167 25.4702 47.6496 25.6249C47.3825 25.7797 47.0683 25.8571 46.707 25.8571C46.3299 25.8571 46.0157 25.7797 45.7486 25.6249C45.4815 25.4702 45.3559 25.2536 45.3559 24.9905V9.99632H41.4126C41.1455 9.99632 40.9255 9.87252 40.7684 9.62494C40.5799 9.37736 40.5014 9.09883 40.5014 8.7584ZM77.5936 8.38684V24.9903C77.5936 25.2534 77.7193 25.47 78.0021 25.6093C78.2691 25.764 78.5833 25.8414 78.9447 25.8414C79.3217 25.8414 79.6359 25.764 79.903 25.6093C80.1701 25.4545 80.2958 25.2379 80.2958 24.9749V8.38684C80.2958 8.10831 80.1701 7.89168 79.903 7.75242C79.6359 7.61315 79.3217 7.53578 78.9447 7.53578C78.5676 7.53578 78.2534 7.61315 77.9863 7.75242C77.7193 7.89168 77.5936 8.10831 77.5936 8.38684ZM88.4809 24.9903V8.38684C88.4809 8.10831 88.6066 7.89168 88.8736 7.75242C89.1407 7.61315 89.4549 7.53578 89.832 7.53578C90.209 7.53578 90.5232 7.61315 90.7903 7.75242C91.0574 7.89168 91.1831 8.10831 91.1831 8.38684V16L97.3887 7.90715C97.5615 7.65957 97.8128 7.53578 98.1585 7.53578C98.5198 7.53578 98.8654 7.67505 99.1954 7.96905C99.541 8.26305 99.6981 8.57253 99.6981 8.91296C99.6981 9.11412 99.6352 9.28433 99.4939 9.43907L94.6079 15.4584L100.405 24.1547C100.499 24.3095 100.562 24.4642 100.562 24.6344C100.562 24.9594 100.389 25.2534 100.059 25.5319C99.7295 25.8104 99.3682 25.9497 98.9754 25.9497C98.5512 25.9497 98.2213 25.7795 98.0014 25.4545L92.8169 17.7021L91.1674 19.7602V25.0058C91.1674 25.2689 91.0417 25.4855 90.7746 25.6402C90.5075 25.795 90.1933 25.8723 89.8163 25.8723C89.4549 25.8723 89.1407 25.795 88.8736 25.6402C88.6223 25.47 88.4809 25.2534 88.4809 24.9903ZM106.752 8.38684V20.4255C106.752 22.3443 107.286 23.7524 108.355 24.6654C109.407 25.5629 110.821 26.0116 112.565 26.0116C114.34 26.0116 115.738 25.5629 116.807 24.6654C117.859 23.7524 118.393 22.3443 118.393 20.4255V8.38684C118.393 8.10831 118.268 7.89168 118.001 7.75242C117.734 7.61315 117.419 7.53578 117.042 7.53578C116.665 7.53578 116.351 7.61315 116.084 7.75242C115.817 7.89168 115.691 8.10831 115.691 8.38684V20.4255C115.691 22.5764 114.654 23.6596 112.565 23.6596C111.575 23.6596 110.821 23.3965 110.271 22.8549C109.721 22.3288 109.454 21.5087 109.454 20.4255V8.38684C109.454 8.10831 109.329 7.89168 109.061 7.75242C108.794 7.61315 108.48 7.53578 108.103 7.53578C107.726 7.53578 107.412 7.61315 107.145 7.75242C106.878 7.89168 106.752 8.10831 106.752 8.38684ZM126.249 24.9903V8.41779C126.249 7.82978 126.704 7.53578 127.6 7.53578C128.071 7.53578 128.464 7.6441 128.747 7.84526C129.029 8.06189 129.328 8.44874 129.642 9.03675L135.298 19.8839V8.38684C135.298 8.10831 135.423 7.89168 135.691 7.75242C135.958 7.61315 136.272 7.53578 136.649 7.53578C137.026 7.53578 137.34 7.61315 137.607 7.75242C137.874 7.89168 138 8.10831 138 8.38684V24.9749C138 25.2379 137.874 25.4545 137.607 25.6093C137.34 25.764 137.026 25.8414 136.649 25.8414C135.942 25.8414 135.408 25.5164 135.046 24.8665L128.967 13.4623V24.9749C128.967 25.2379 128.841 25.4545 128.574 25.6093C128.307 25.764 127.992 25.8414 127.615 25.8414C127.254 25.8414 126.94 25.764 126.673 25.6093C126.39 25.47 126.249 25.2534 126.249 24.9903Z" fill="white"></path></svg>